<?xml version="1.0" encoding="iso-8859-1"?>
<!-- Generator: Adobe Illustrator 18.0.0, SVG Export Plug-In . SVG Version: 6.00 Build 0)  -->
<!DOCTYPE svg PUBLIC "-//W3C//DTD SVG 1.1//EN" "http://www.w3.org/Graphics/SVG/1.1/DTD/svg11.dtd">
<svg version="1.1" id="Capa_1" xmlns="http://www.w3.org/2000/svg" xmlns:xlink="http://www.w3.org/1999/xlink" x="0px" y="0px"
	 viewBox="0 0 372 372" style="enable-background:new 0 0 372 372;" xml:space="preserve">
<g>
	<path d="M186,0C130.158,0,79.99,24.741,45.866,63.832c-0.676,0.6-1.265,1.293-1.758,2.053C16.613,98.315,0,140.251,0,186
		c0,102.561,83.439,186,186,186s186-83.439,186-186S288.561,0,186,0z M324.53,94.647c-19.232-1.383-38.649-0.855-57.929,1.6
		c-16.343,2.082-32.415,5.543-48.049,10.301C175.848,79.323,126.959,63.87,76.354,61.479
		c28.139-24.807,64.715-40.252,104.815-41.404c-0.752,3.221-1.16,6.529-1.16,9.868c0,23.901,19.445,43.346,43.347,43.346
		c20.339,0,37.441-14.083,42.09-33.009C289.289,53.332,309.59,72.067,324.53,94.647z M246.647,31.471
		c-0.791,12.163-10.931,21.818-23.29,21.818c-12.873,0-23.347-10.473-23.347-23.346c0-3.173,0.646-6.296,1.878-9.179
		C217.536,22.257,232.56,25.924,246.647,31.471z M57.372,81.192c1.71-0.032,3.421-0.05,5.119-0.05
		c46.323,0,91.47,11.743,131.563,34.077c-24.231,9.811-47.103,22.863-67.907,38.885c-4.375,3.37-5.191,9.649-1.821,14.024
		c1.97,2.558,4.934,3.899,7.93,3.899c2.13,0,4.276-0.678,6.094-2.078c37.865-29.162,83.088-47.787,130.779-53.862
		c22.441-2.86,45.075-2.918,67.316-0.196C346.416,137.202,352,160.959,352,186c0,1.876-0.043,3.743-0.105,5.604H20.105
		C20.043,189.743,20,187.876,20,186C20,146.287,34.024,109.792,57.372,81.192z M201.48,211.825l25.083,135.154
		c-9.869,2.488-20.087,4.086-30.564,4.711v-19.33c0-5.523-4.478-10-10-10c-5.523,0-10,4.477-10,10v19.33
		c-10.476-0.625-20.694-2.224-30.563-4.711l25.083-135.154c0.014-0.074,0.018-0.147,0.03-0.221h30.902
		C201.463,211.678,201.467,211.751,201.48,211.825z M21.976,211.604h128.244L126.23,340.863
		C71.815,319.789,31.184,270.828,21.976,211.604z M245.77,340.862l-23.989-129.258h128.244
		C340.816,270.828,300.186,319.789,245.77,340.862z"/>
	<path d="M186,304.721c5.522,0,10-4.477,10-10v-11.542c0-5.523-4.478-10-10-10c-5.523,0-10,4.477-10,10v11.542
		C176,300.244,180.477,304.721,186,304.721z"/>
	<path d="M186,256.091c5.522,0,10-4.477,10-10v-10.777c0-5.523-4.478-10-10-10c-5.523,0-10,4.477-10,10v10.777
		C176,251.614,180.477,256.091,186,256.091z"/>
</g>
<g>
</g>
<g>
</g>
<g>
</g>
<g>
</g>
<g>
</g>
<g>
</g>
<g>
</g>
<g>
</g>
<g>
</g>
<g>
</g>
<g>
</g>
<g>
</g>
<g>
</g>
<g>
</g>
<g>
</g>
</svg>
