<?xml version="1.0" encoding="iso-8859-1"?>
<!-- Generator: Adobe Illustrator 18.1.1, SVG Export Plug-In . SVG Version: 6.00 Build 0)  -->
<svg version="1.1" id="Capa_1" xmlns="http://www.w3.org/2000/svg" xmlns:xlink="http://www.w3.org/1999/xlink" x="0px" y="0px"
	 viewBox="0 0 27.571 27.571" style="enable-background:new 0 0 27.571 27.571;" xml:space="preserve">
<g>
	<path d="M9.342,8.469c0,0.833,0.054,1.457,0.163,1.873c0.108,0.416,0.289,0.771,0.542,1.063c0.254,0.293,0.694,0.428,1.152,0.573
		c0.457,0.145,1.394,0.217,2.055,0.217c0.59,0,0.86-0.084,1.316-0.254c0.455-0.17,0.828-0.349,1.118-0.706
		c0.29-0.356,0.48-0.741,0.569-1.152c0.088-0.411,0.133-1.058,0.133-1.938V5.66c0-0.694-0.049-1.211-0.145-1.55
		c-0.096-0.34-0.273-0.669-0.535-0.99c-0.261-0.32-0.631-0.58-1.111-0.779c-0.48-0.2-0.803-0.299-1.473-0.299
		c-0.797,0-1.914,0.154-2.426,0.465c-0.511,0.31-0.866,0.722-1.063,1.233C9.44,4.252,9.342,4.963,9.342,5.875V8.469z M12.283,5.048
		c0-0.503,0.029-0.818,0.09-0.949c0.059-0.131,0.303-0.196,0.479-0.196s0.419,0.065,0.474,0.196c0.053,0.131,0.08,0.446,0.08,0.949
		v4.099c0,0.423-0.027,0.699-0.084,0.827s-0.426,0.192-0.604,0.192c-0.172,0-0.287-0.07-0.346-0.211
		c-0.061-0.14-0.09-0.441-0.09-0.904L12.283,5.048L12.283,5.048z"/>
	<path d="M4.303,12.103h2.943V7.775l2.203-7.712L6.594,0C6.189,2.243,5.9,3.877,5.728,5.152C5.671,4.345,5.42,2.333,4.973,0H2.117
		l2.186,7.775V12.103z"/>
	<path d="M17.767,11.416c0.141,0.261,0.358,0.387,0.654,0.543c0.295,0.158,0.793,0.11,1.24,0.11c0.395,0,0.742,0.044,1.045-0.122
		c0.303-0.165,0.559-0.33,0.765-0.66l-0.052,0.73h3.035V2.03h-3.025v6.867c0,0.802-0.021,1.278-0.062,1.425
		c-0.043,0.147-0.3,0.222-0.521,0.222c-0.207,0-0.375-0.071-0.422-0.215c-0.047-0.142-0.07-0.595-0.07-1.358V2.03h-2.898v6.882
		c0,0.841,0.017,1.404,0.051,1.688C17.54,10.883,17.628,11.155,17.767,11.416z"/>
	<path d="M25.133,14H2.441c-1.24,0-2.242,1.064-2.242,2.379v8.813c0,1.312,1.002,2.379,2.242,2.379h22.691
		c1.234,0,2.24-1.066,2.24-2.379v-8.813C27.373,15.064,26.367,14,25.133,14z M6.864,18.562H5.951v7.076H3.839v-7.076H2.806v-1.986
		h4.058V18.562z M12.958,25.637h-2.226l0.037-0.597c-0.15,0.243-0.337,0.424-0.559,0.545c-0.223,0.121-0.479,0.182-0.767,0.182
		c-0.329,0-0.686-0.058-0.902-0.173s-0.376-0.269-0.479-0.46c-0.103-0.191-0.167-0.391-0.192-0.599s-0.038-0.62-0.038-1.237v-4.721
		h2.083v4.764c0,0.559,0.017,0.891,0.051,0.996c0.034,0.104,0.316,0.157,0.468,0.157c0.163,0,0.386-0.054,0.416-0.162
		c0.03-0.108,0.046-0.457,0.046-1.045v-4.731h2.062C12.958,18.556,12.958,25.637,12.958,25.637z M18.974,23.634
		c0,0.527,0.007,0.919-0.064,1.177c-0.069,0.258-0.235,0.482-0.496,0.672c-0.258,0.189-0.484,0.284-0.841,0.284
		c-0.257,0-0.495-0.057-0.718-0.169c-0.221-0.112-0.677-0.28-0.861-0.504l-0.141,0.543h-1.984v-9.062h2.125v2.622
		c0.18-0.209,0.635-0.366,0.856-0.469c0.222-0.103,0.462-0.155,0.723-0.155c0.3,0,0.56,0.047,0.78,0.141
		c0.219,0.094,0.305,0.226,0.419,0.396c0.116,0.17,0.144,0.335,0.167,0.499c0.023,0.163,0.035,0.005,0.035,0.535
		C18.974,20.144,18.974,23.634,18.974,23.634z M24.985,21.667h-3.001v2.059c0,0.325,0.024,0.534,0.071,0.627
		c0.048,0.094,0.222,0.141,0.354,0.141c0.166,0,0.404-0.062,0.46-0.187s0.083-0.366,0.083-0.723v-0.948h2.032v0.531
		c0,0.444-0.028,0.785-0.084,1.024c-0.056,0.238-0.187,0.492-0.392,0.763c-0.207,0.271-0.552,0.474-0.868,0.609
		c-0.315,0.135-0.712,0.203-1.188,0.203c-0.462,0-0.743-0.067-1.098-0.201c-0.354-0.134-0.691-0.316-0.888-0.549
		s-0.376-0.489-0.451-0.769c-0.076-0.279-0.114-0.687-0.114-1.222V20.68c0-0.628,0.084-0.62,0.255-0.983
		c0.169-0.362,0.552-0.64,0.938-0.833c0.387-0.194,0.705-0.291,1.207-0.291c0.613,0,1.203,0.116,1.603,0.35
		c0.399,0.233,0.679,0.542,0.839,0.926c0.161,0.385,0.241,0.673,0.241,1.37v0.448H24.985z"/>
	<path d="M16.842,20.017c-0.047-0.115-0.391-0.171-0.528-0.171c-0.134,0-0.22,0.049-0.26,0.149c-0.04,0.099-0.06-0.155-0.06,0.246
		v3.35c0,0.386,0.022,0.634,0.067,0.742c0.046,0.108,0.136,0.162,0.269,0.162c0.137,0,0.479-0.056,0.521-0.167
		c0.041-0.112,0.062-0.381,0.062-0.807v-3.279C16.913,19.869,16.888,20.13,16.842,20.017z"/>
	<path d="M22.404,19.72c-0.15,0-0.328,0.046-0.365,0.138c-0.036,0.092-0.055-0.038-0.055,0.367v0.399h0.809v-0.399
		c0-0.372-0.021-0.234-0.061-0.342C22.693,19.774,22.527,19.72,22.404,19.72z"/>
	<g>
	</g>
	<g>
	</g>
	<g>
	</g>
	<g>
	</g>
	<g>
	</g>
	<g>
	</g>
	<g>
	</g>
	<g>
	</g>
	<g>
	</g>
	<g>
	</g>
	<g>
	</g>
	<g>
	</g>
	<g>
	</g>
	<g>
	</g>
	<g>
	</g>
</g>
<g>
</g>
<g>
</g>
<g>
</g>
<g>
</g>
<g>
</g>
<g>
</g>
<g>
</g>
<g>
</g>
<g>
</g>
<g>
</g>
<g>
</g>
<g>
</g>
<g>
</g>
<g>
</g>
<g>
</g>
</svg>
