<?xml version="1.0" standalone="no"?>
<!DOCTYPE svg PUBLIC "-//W3C//DTD SVG 20010904//EN"
 "http://www.w3.org/TR/2001/REC-SVG-20010904/DTD/svg10.dtd">
<svg version="1.0" xmlns="http://www.w3.org/2000/svg"
 width="750.000000pt" height="953.000000pt" viewBox="0 0 750.000000 953.000000"
 preserveAspectRatio="xMidYMid meet">

<g transform="translate(0.000000,953.000000) scale(0.100000,-0.100000)"
fill="#000000" stroke="none">
<path d="M3660 8411 c-85 -4 -160 -10 -166 -14 -7 -4 -65 -16 -130 -27 -121
-20 -187 -41 -276 -86 -78 -40 -180 -108 -237 -158 -29 -26 -70 -58 -91 -71
-51 -32 -219 -229 -254 -297 -15 -29 -21 -45 -14 -34 125 182 278 336 335 336
11 0 44 12 72 27 l51 26 25 -23 c13 -13 22 -27 19 -31 -3 -5 0 -9 5 -9 18 0
12 -20 -14 -52 -34 -40 -32 -55 3 -23 41 40 78 56 108 49 l26 -7 -8 -111 c-12
-156 -10 -198 13 -309 22 -104 80 -233 158 -352 29 -44 41 -71 38 -88 -5 -27
47 -145 77 -172 11 -10 20 -24 20 -32 0 -8 9 -32 20 -54 l21 -40 -24 6 c-15 4
-30 1 -40 -9 -13 -14 -16 -14 -27 -1 -18 22 -30 18 -30 -10 0 -14 -2 -25 -5
-25 -21 0 -75 32 -85 50 -9 17 -14 19 -26 9 -19 -16 -18 -26 9 -52 32 -31 33
-71 2 -91 -29 -19 -34 -39 -7 -29 14 6 15 4 5 -8 -10 -12 -9 -20 3 -40 9 -13
-17 10 -58 51 -84 85 -170 203 -172 237 -1 16 -8 23 -21 24 -11 1 -31 2 -45 2
-16 1 -29 11 -38 30 -8 16 -16 26 -19 24 -2 -3 3 -19 11 -36 11 -20 12 -32 6
-36 -13 -8 -42 14 -35 26 3 4 -1 23 -10 41 -8 18 -13 24 -9 13 11 -40 15 -95
5 -95 -5 0 -16 -3 -25 -6 -11 -4 -19 8 -32 53 -24 84 -33 86 -18 2 11 -53 11
-75 3 -85 -9 -11 -7 -14 9 -14 20 0 32 -18 32 -50 0 -10 19 -38 42 -64 49 -54
56 -76 23 -76 -36 0 -106 85 -137 166 -37 96 -58 171 -59 213 l-1 36 -10 -30
c-6 -16 -11 -79 -12 -140 -1 -89 -4 -110 -15 -110 -10 0 -19 18 -25 48 -13 58
-28 52 -20 -7 4 -30 3 -37 -5 -26 -24 35 -25 150 0 135 5 -4 9 10 9 29 0 19
-4 37 -9 40 -4 3 -11 33 -15 67 -7 59 -8 60 -26 44 -11 -10 -19 -20 -18 -24 1
-7 -7 -30 -28 -78 -8 -17 -17 -45 -20 -62 -7 -34 -19 -47 -29 -31 -4 6 -6 69
-6 140 l0 130 -25 -6 c-26 -7 -34 12 -13 33 5 5 16 34 24 64 l14 54 -19 -25
c-11 -14 -20 -35 -20 -47 0 -12 -4 -25 -10 -28 -5 -3 -10 -18 -10 -33 0 -34
-158 -186 -210 -203 -66 -20 -90 -31 -90 -42 0 -12 147 -2 187 14 43 16 49 -1
27 -88 -23 -94 -26 -356 -6 -468 12 -64 51 -189 58 -183 1 2 -2 23 -6 48 -15
77 -23 234 -16 294 4 32 9 56 11 54 2 -2 11 -39 20 -83 9 -44 33 -120 53 -170
36 -88 37 -93 37 -220 0 -90 -4 -137 -14 -154 -13 -23 -12 -24 10 -17 65 19
127 29 142 23 19 -7 23 -27 6 -27 -6 0 -17 -7 -25 -15 -9 -8 -24 -15 -35 -15
-11 0 -45 -9 -76 -20 l-56 -20 24 26 24 27 -31 -16 c-17 -9 -45 -32 -63 -52
-52 -60 -41 -141 30 -229 41 -49 113 -80 247 -106 152 -29 154 -30 158 -65 2
-16 -2 -36 -9 -44 -9 -12 -9 -13 1 -7 14 8 16 -3 3 -23 -7 -11 -25 -13 -84 -8
-76 7 -130 23 -122 38 3 4 -4 11 -16 14 -13 4 -25 2 -29 -5 -12 -19 -112 34
-156 84 -71 80 -105 126 -115 156 -14 38 -21 38 -52 -2 -13 -18 -42 -41 -63
-52 -22 -10 -46 -22 -54 -26 -18 -9 -23 -30 -11 -49 8 -12 16 -9 46 17 19 18
41 32 47 32 6 0 17 8 24 17 7 10 15 15 19 12 8 -9 -52 -89 -84 -114 -13 -10
-40 -19 -60 -20 -38 -3 -53 -21 -26 -31 25 -10 88 24 136 72 51 52 64 55 55
13 -5 -25 -3 -29 7 -20 15 12 37 -3 37 -27 0 -12 3 -12 15 -2 13 10 15 9 15
-9 0 -44 -115 -241 -141 -241 -15 0 -2 36 38 103 48 79 35 84 -17 7 -26 -39
-46 -58 -52 -52 -5 5 -4 19 3 36 10 22 10 29 1 35 -10 6 -9 16 3 47 l15 39
-30 -35 c-16 -19 -30 -37 -30 -41 0 -3 -16 -14 -35 -25 -35 -19 -45 -46 -22
-61 7 -4 21 -26 32 -47 11 -22 32 -46 48 -55 15 -9 29 -23 32 -33 8 -22 32
-30 54 -18 17 9 91 122 91 139 0 5 7 15 17 22 15 13 16 11 10 -11 -3 -14 -13
-67 -22 -119 -19 -110 -15 -118 56 -125 l47 -4 6 79 c4 43 11 81 15 83 4 3 3
-27 -1 -65 -5 -44 -5 -84 2 -108 9 -34 15 -40 48 -46 20 -4 73 -9 117 -10 77
-1 80 -2 89 -28 7 -20 5 -36 -8 -64 -30 -63 -108 -173 -119 -166 -6 4 -8 0 -4
-10 3 -9 2 -17 -2 -19 -5 -2 -37 -43 -71 -93 -34 -49 -86 -117 -114 -150 -28
-33 -59 -70 -70 -82 -10 -12 -32 -25 -49 -29 l-31 -6 39 -19 c49 -24 82 -54
88 -82 3 -12 20 -55 38 -95 37 -82 36 -85 -35 -96 -74 -12 -234 -102 -331
-186 -26 -22 -49 -40 -53 -40 -13 0 -103 119 -173 227 -38 59 -71 109 -74 111
-5 6 -62 -115 -71 -153 -4 -16 -18 -47 -31 -68 l-24 -37 31 -7 c42 -8 51 -30
33 -78 -23 -62 -18 -182 10 -222 12 -18 29 -33 38 -33 25 0 42 -26 34 -51 -5
-14 -2 -25 6 -30 11 -7 11 -13 -4 -38 -9 -16 -17 -41 -17 -55 0 -15 -6 -37
-14 -49 -18 -27 -49 -117 -43 -123 2 -3 31 22 62 56 32 33 67 60 77 60 10 0
37 -17 61 -39 40 -37 149 -111 163 -111 4 0 35 -14 71 -31 51 -26 68 -30 86
-22 48 22 57 -1 31 -76 -19 -53 -22 -46 94 -208 34 -48 62 -92 62 -98 0 -17
-31 -41 -62 -49 -37 -8 -35 -18 7 -50 34 -27 35 -27 29 -89 -3 -34 -12 -89
-19 -122 -31 -135 -36 -177 -46 -340 -13 -215 1 -399 57 -755 56 -353 112
-575 209 -820 42 -107 87 -213 99 -235 13 -22 31 -67 41 -100 9 -33 28 -86 41
-117 19 -44 22 -63 14 -82 -22 -60 -89 -56 989 -56 542 0 992 4 998 8 20 13
163 302 246 497 42 99 99 227 128 285 64 131 94 207 152 385 89 275 109 350
161 595 67 314 79 421 73 629 -5 191 -14 246 -46 256 -25 8 -243 134 -263 152
-10 9 -18 19 -18 23 0 4 30 16 67 26 66 18 151 67 187 108 10 11 27 32 38 46
l20 25 19 -24 c25 -31 33 -22 24 27 -5 32 -13 43 -35 52 -15 6 -38 23 -51 36
l-23 24 35 36 c19 20 43 46 55 57 34 36 194 217 269 305 39 46 87 102 108 125
20 22 37 45 37 50 0 19 -100 112 -165 155 -75 48 -201 112 -223 112 -7 0 -16
10 -21 22 -7 21 -8 21 -27 -7 -10 -16 -33 -43 -50 -60 -17 -17 -35 -41 -39
-54 -9 -30 -65 -92 -76 -85 -5 3 -9 18 -9 34 0 32 52 100 76 100 13 0 17 11
28 80 4 19 15 50 26 68 16 26 26 32 54 32 21 0 36 -6 40 -15 5 -14 9 -14 31 1
24 16 41 16 218 3 106 -8 258 -13 338 -12 144 2 147 1 141 -19 -3 -14 -1 -19
9 -16 7 2 17 18 21 35 7 27 19 35 109 74 97 41 149 81 149 114 0 8 -5 26 -12
40 -10 22 -8 29 14 53 37 40 58 74 58 93 0 23 -45 75 -70 82 -17 4 -19 1 -14
-17 12 -48 -87 -161 -175 -201 -34 -15 -35 -15 -68 17 -18 17 -33 38 -33 45 0
7 24 28 53 46 55 35 157 140 157 161 0 19 -42 54 -153 127 l-102 68 -3 -36
c-4 -43 -21 -71 -54 -87 -13 -6 -23 -18 -23 -25 0 -14 -50 -49 -72 -50 -31 -2
-93 -56 -104 -90 -6 -20 -22 -55 -34 -78 l-23 -42 101 -3 102 -3 25 -47 c18
-34 22 -50 14 -58 -17 -17 -458 -25 -584 -11 -58 6 -180 15 -272 18 l-167 6
-16 33 c-18 39 -19 64 -2 65 11 1 358 -2 572 -5 137 -2 145 1 177 60 29 51 39
99 16 76 -15 -15 -74 -16 -83 -2 -3 6 3 10 14 10 25 0 36 17 22 34 -6 7 -8 15
-5 18 3 3 12 34 20 68 22 96 -6 210 -51 210 -7 0 -25 -11 -41 -25 -39 -34 -65
-29 -77 15 -10 41 8 60 57 60 17 0 40 8 51 16 19 15 19 17 -25 56 -25 22 -56
44 -69 49 -30 12 -88 -6 -101 -31 -25 -48 -1 -127 45 -148 22 -10 24 -15 15
-32 -8 -15 -8 -20 3 -20 7 0 37 -25 66 -55 29 -30 57 -55 62 -55 5 0 15 15 23
33 l14 32 1 -53 c1 -60 -19 -107 -49 -117 -16 -5 -34 9 -88 65 -37 39 -75 86
-85 103 -19 35 -16 35 -188 39 -79 3 -101 7 -118 22 -26 24 -114 49 -163 47
-39 -1 -60 15 -37 30 11 7 10 9 -3 9 -10 0 -18 -7 -18 -16 0 -13 -9 -14 -52
-9 -31 4 -58 13 -65 23 -16 19 -17 32 -3 32 6 0 10 7 10 15 0 17 -9 19 -29 6
-20 -13 -101 25 -136 64 -17 18 -47 40 -68 48 -40 17 -53 37 -43 64 5 12 9 14
18 5 14 -14 38 -16 38 -3 0 5 -11 12 -24 15 -41 10 -81 156 -42 156 9 0 21
-27 33 -77 l20 -78 -3 88 c-1 52 1 85 7 82 5 -4 9 -15 9 -25 0 -23 18 -36 32
-22 7 7 6 17 -1 31 -15 28 2 27 23 -1 16 -23 17 -23 11 -1 -3 12 -2 24 3 27 5
3 19 -40 31 -94 12 -55 26 -100 31 -100 4 0 1 26 -7 57 -15 59 -10 122 10 135
27 17 54 8 70 -24 l16 -33 0 36 c1 28 6 38 22 42 15 4 22 -1 29 -19 13 -32 29
-31 22 2 -4 21 -1 25 14 22 25 -4 30 -63 10 -130 -14 -50 -14 -51 10 -75 28
-28 29 -66 2 -71 -9 -2 -28 10 -43 25 l-27 28 6 -36 7 -37 -70 2 c-46 1 -80 8
-104 21 -20 10 -40 15 -44 11 -4 -5 -2 -11 5 -13 7 -3 21 -14 31 -24 11 -12
25 -17 34 -13 9 3 29 -4 47 -16 16 -12 39 -22 49 -23 11 -1 18 -3 15 -6 -9 -9
55 -29 75 -24 12 3 21 1 21 -6 0 -6 9 -11 19 -11 11 0 23 -5 26 -10 4 -6 16
-8 28 -4 19 6 20 5 8 -10 -16 -19 -16 -19 27 -7 28 8 34 7 45 -10 7 -11 23
-19 38 -19 14 0 29 -3 33 -7 4 -4 26 -13 49 -19 23 -7 52 -15 65 -19 16 -6 22
-3 22 9 0 9 5 16 10 16 6 0 10 -7 10 -16 0 -13 6 -15 27 -9 37 9 39 12 20 33
-28 31 -65 125 -68 172 -5 115 3 122 45 35 14 -30 30 -55 35 -55 5 0 16 11 24
24 21 31 94 66 138 66 47 0 71 -19 124 -101 33 -51 50 -69 61 -65 9 3 23 6 31
6 13 0 15 10 9 67 -12 112 -25 156 -62 203 l-35 44 3 -37 c2 -39 -21 -75 -41
-63 -22 14 -55 92 -81 194 -28 105 -26 120 13 114 22 -4 22 15 -1 53 -11 17
-22 48 -26 70 -5 26 -19 49 -43 71 -32 29 -36 39 -40 98 -3 37 -10 69 -14 72
-5 3 -9 12 -9 20 0 8 -36 88 -79 177 -44 89 -82 177 -86 195 -4 18 -13 45 -20
60 -8 15 -21 54 -29 86 -17 64 -26 81 -26 48 0 -11 -4 -23 -8 -26 -5 -3 -14
52 -21 122 -6 70 -16 174 -22 232 -6 58 -12 121 -13 140 -1 30 -6 35 -28 38
-27 3 -52 36 -103 135 -25 48 -65 79 -86 66 -11 -7 -10 -9 7 -9 20 0 24 -8 25
-57 1 -13 5 -21 9 -18 5 3 12 0 16 -6 4 -8 3 -9 -4 -5 -7 4 -12 3 -12 -3 0 -6
-11 -5 -27 4 -16 7 -41 17 -58 22 -20 6 -31 16 -33 31 -2 13 -8 22 -14 20 -10
-4 -17 -33 -18 -81 -1 -17 -3 -17 -21 4 -23 27 -23 29 1 -67 22 -89 25 -134 9
-134 -6 0 -8 -11 -5 -27 3 -16 1 -35 -5 -43 -8 -12 -9 -9 -4 13 3 17 2 26 -4
23 -5 -3 -7 3 -4 14 4 14 1 19 -8 15 -10 -4 -19 13 -33 57 -10 35 -22 74 -27
88 -5 14 -16 54 -24 90 -7 36 -25 94 -39 130 -13 36 -27 87 -31 113 l-7 47 30
-11 c16 -5 35 -22 41 -36 10 -22 14 -24 22 -12 7 11 9 10 9 -6 1 -19 1 -19 15
-2 13 18 14 18 35 -3 12 -12 28 -19 37 -16 8 3 20 6 26 6 8 0 7 3 -2 9 -7 5
-11 15 -9 22 3 9 13 -2 27 -26 12 -22 19 -30 16 -17 -6 20 -4 21 19 12 14 -5
25 -6 25 -2 -6 41 14 57 25 20 7 -22 7 -22 16 -3 12 27 12 37 0 30 -10 -6 -14
25 -10 72 1 12 -3 31 -9 41 -8 15 -5 26 13 51 22 29 24 30 38 13 8 -9 23 -39
33 -67 10 -27 25 -59 32 -70 7 -11 13 -30 13 -42 0 -24 27 -102 41 -117 5 -5
12 1 17 14 9 23 9 23 20 -10 7 -18 12 -44 12 -58 0 -14 8 -53 19 -86 29 -95
51 -226 45 -279 -2 -27 -1 -46 3 -44 5 3 9 -20 10 -51 3 -64 8 -72 28 -46 9
10 15 15 14 9 -4 -28 2 -44 14 -39 10 3 22 -24 42 -93 16 -54 35 -109 42 -123
7 -14 13 -31 13 -37 0 -7 4 -13 8 -13 5 0 14 -16 22 -35 8 -19 17 -35 22 -35
4 0 8 -9 8 -19 0 -11 4 -23 10 -26 5 -3 15 -15 21 -27 6 -11 7 -18 1 -14 -14
9 -109 150 -116 174 -10 29 -32 45 -55 37 -18 -5 -19 -9 -8 -28 7 -12 19 -27
27 -35 13 -11 12 -12 -5 -10 -10 2 -26 17 -35 33 -8 17 -18 31 -22 33 -4 2 -5
11 -2 20 5 16 5 16 -5 0 -14 -21 12 -93 44 -124 12 -11 25 -27 28 -35 3 -8 6
-1 6 14 1 18 5 26 12 21 6 -3 8 -15 6 -26 -3 -11 -3 -18 0 -15 8 9 40 -25 48
-51 3 -12 16 -32 28 -42 21 -20 30 -35 116 -187 63 -112 198 -281 252 -316 24
-16 26 -16 24 2 -2 24 -24 53 -36 45 -5 -3 -9 0 -9 7 0 7 -16 28 -36 47 -19
19 -40 45 -45 59 -5 13 -14 21 -20 18 -6 -4 -10 -1 -8 6 3 29 -2 39 -21 39
-12 0 -25 10 -30 23 -5 12 -18 33 -27 47 -10 13 -12 21 -5 16 7 -4 12 -2 12 5
0 19 19 -3 23 -26 1 -11 8 -29 15 -40 10 -17 11 -15 5 15 -8 41 -42 102 -53
95 -8 -5 -39 41 -53 78 -13 34 3 16 27 -30 14 -27 25 -42 26 -34 0 7 -33 77
-74 155 -146 277 -211 456 -305 846 -21 91 -56 221 -77 290 -20 69 -52 175
-70 235 l-33 110 84 82 c47 46 85 87 85 92 0 17 -42 25 -180 36 -25 1 -48 3
-53 4 -4 1 -14 19 -23 41 -19 47 -153 177 -193 187 -14 3 -29 11 -33 16 -3 6
-9 58 -13 116 -7 117 -12 151 -23 151 -17 0 -104 -90 -157 -162 -32 -43 -63
-78 -70 -78 -6 0 -20 9 -31 21 -10 11 -95 58 -189 104 -149 74 -185 87 -290
109 -155 32 -189 35 -375 27z m178 -18 c-10 -2 -26 -2 -35 0 -10 3 -2 5 17 5
19 0 27 -2 18 -5z m-311 -19 c-3 -3 -12 -4 -19 -1 -8 3 -5 6 6 6 11 1 17 -2
13 -5z m360 0 c-3 -3 -12 -4 -19 -1 -8 3 -5 6 6 6 11 1 17 -2 13 -5z m-440
-20 c-3 -3 -12 -4 -19 -1 -8 3 -5 6 6 6 11 1 17 -2 13 -5z m-64 -11 c-7 -2
-21 -2 -30 0 -10 3 -4 5 12 5 17 0 24 -2 18 -5z m-60 -10 c-7 -2 -19 -2 -25 0
-7 3 -2 5 12 5 14 0 19 -2 13 -5z m887 -73 c0 -5 9 -6 20 -3 15 4 20 0 20 -16
0 -11 6 -21 14 -21 8 0 24 -8 36 -18 20 -16 21 -19 5 -32 -14 -12 -21 -11 -47
5 -17 10 -39 26 -49 36 -11 11 -28 19 -39 19 -11 0 -20 5 -20 10 0 6 5 10 11
10 5 0 7 4 4 10 -4 6 1 7 11 3 12 -4 15 -3 10 5 -5 8 -2 10 8 6 9 -3 16 -10
16 -14z m111 -18 c30 -19 143 -171 134 -180 -10 -10 -94 81 -115 125 -12 26
-30 47 -45 53 -14 5 -25 12 -25 15 0 11 26 4 51 -13z m-1276 -15 c-11 -8 -29
-17 -40 -20 -16 -6 -15 -3 5 13 14 11 32 20 40 20 10 0 9 -4 -5 -13z m1630
-79 c-7 -26 -37 -93 -65 -149 -53 -107 -53 -128 -1 -104 43 21 99 26 105 9 9
-22 -3 -42 -38 -64 -18 -11 -45 -31 -60 -45 -38 -35 -56 -26 -56 25 0 25 -4
39 -10 35 -5 -3 -10 -27 -10 -53 0 -26 -5 -54 -10 -62 -13 -20 -13 -11 0 104
7 61 7 93 0 100 -27 27 11 136 50 144 8 2 18 10 23 17 4 8 14 12 22 9 8 -4 15
-1 15 6 0 14 40 83 46 78 2 -2 -3 -25 -11 -50z m-1631 -53 c-4 -8 -8 -15 -10
-15 -2 0 -4 7 -4 15 0 8 4 15 10 15 5 0 7 -7 4 -15z m1095 2 c16 1 20 -2 11
-7 -10 -6 -8 -9 6 -13 10 -2 -6 -5 -36 -6 l-55 -2 23 -18 c31 -27 28 -32 -8
-14 -23 11 -28 18 -20 28 6 7 7 20 4 29 -6 14 -2 16 22 9 16 -4 40 -7 53 -6z
m-909 -37 c0 -19 5 -29 13 -27 7 1 11 -7 9 -23 -6 -52 -22 -176 -26 -207 -3
-18 -1 -33 5 -33 5 0 9 17 9 38 0 37 18 76 26 57 15 -33 22 -39 38 -26 9 8 22
9 33 4 10 -4 52 -5 93 -2 41 3 68 7 60 8 -8 2 -1 7 15 12 37 11 57 5 49 -16
-6 -14 4 -16 79 -14 46 1 90 -2 96 -6 7 -4 25 -2 41 5 37 15 47 57 25 100 -20
39 -15 46 13 20 12 -12 22 -18 22 -15 0 3 27 -26 60 -64 72 -83 85 -94 77 -59
-6 22 -2 28 23 38 44 18 41 59 -5 94 -79 61 -16 76 88 22 35 -18 76 -36 89
-39 53 -14 278 -318 278 -376 0 -12 5 -21 10 -21 6 0 10 -7 10 -16 0 -9 9 -27
19 -41 11 -13 23 -45 26 -71 3 -26 14 -72 25 -102 10 -30 20 -76 23 -101 5
-54 61 -208 95 -262 13 -22 21 -41 18 -44 -7 -8 -75 90 -76 110 0 9 -4 17 -10
17 -5 0 -10 6 -10 13 0 7 -7 22 -15 33 -14 18 -15 16 -9 -21 11 -75 34 -134
50 -128 25 9 15 -11 -11 -24 -23 -10 -26 -9 -31 15 -12 55 -27 97 -39 112 -7
8 -18 32 -25 53 -14 43 -20 47 -17 11 3 -39 -26 -54 -54 -29 -16 14 -23 16
-26 8 -3 -7 -11 -13 -19 -13 -9 0 -14 -11 -14 -29 0 -16 -6 -31 -15 -35 -8 -3
-15 -17 -15 -32 0 -19 -4 -25 -15 -20 -19 7 -55 -14 -55 -31 0 -7 -7 -13 -16
-13 -12 0 -14 10 -12 52 3 50 5 53 36 62 28 8 32 13 28 32 -4 15 -1 26 9 31
12 7 14 19 9 56 -6 40 -9 45 -24 37 -40 -21 -75 -20 -92 3 l-17 22 -9 -26 c-6
-14 -9 -46 -7 -72 2 -26 0 -45 -3 -43 -12 7 -27 -18 -30 -47 -2 -22 1 -27 15
-25 10 2 19 -4 21 -14 5 -24 -28 -70 -45 -64 -8 3 -26 0 -41 -8 -35 -18 -80
-15 -114 8 -39 25 -35 39 8 34 l37 -4 -23 18 c-12 10 -28 18 -36 18 -8 0 -14
8 -13 18 0 10 3 12 6 5 2 -7 11 -13 20 -13 12 0 14 8 9 40 -3 22 -9 58 -12 80
-3 22 -10 40 -15 40 -5 0 -9 12 -9 28 0 27 -5 78 -10 97 -4 17 -18 -48 -19
-92 0 -23 -6 -76 -12 -118 l-11 -75 -34 0 c-33 0 -34 1 -35 43 0 23 -4 60 -8
82 -8 34 -9 28 -10 -42 -1 -82 -1 -83 -26 -83 -32 0 -32 -18 0 -26 21 -5 24
-10 19 -33 -10 -40 -23 -61 -39 -61 -8 0 -15 9 -15 20 0 18 -2 19 -21 8 -27
-17 -44 6 -59 81 -6 31 -16 74 -23 96 -12 46 -57 129 -65 121 -8 -8 -2 -185 9
-240 10 -53 7 -64 -13 -50 -7 5 -22 9 -33 9 -11 0 -24 4 -28 10 -6 7 -10 6
-14 -3 -3 -9 -13 -1 -29 22 -27 39 -30 62 -11 69 9 3 6 15 -10 44 -32 56 -29
72 7 38 36 -34 40 -19 6 22 -13 15 -33 44 -45 63 -20 33 -21 34 -21 10 l0 -25
-20 25 c-54 67 -168 274 -198 360 -31 86 -34 108 -39 240 -6 155 5 218 47 288
25 41 50 42 50 2z m1206 -27 c17 -17 17 -18 0 -21 -20 -4 -48 16 -40 29 8 14
21 11 40 -8z m-23 -47 c18 -14 24 -32 7 -21 -5 3 -10 -1 -10 -9 0 -12 -6 -13
-32 -5 -59 19 -80 32 -66 41 20 12 81 9 101 -6z m47 -40 c0 -3 -4 -8 -10 -11
-5 -3 -10 -1 -10 4 0 6 5 11 10 11 6 0 10 -2 10 -4z m365 -38 c17 -3 15 -5 -7
-10 -24 -4 -28 -2 -28 16 0 13 3 16 8 10 4 -7 16 -14 27 -16z m-1452 -55 c-7
-2 -19 -2 -25 0 -7 3 -2 5 12 5 14 0 19 -2 13 -5z m1780 -12 c15 -8 27 -17 27
-21 0 -4 -12 -10 -27 -13 -100 -18 -349 -80 -407 -101 -39 -14 -72 -24 -74
-21 -3 2 -14 -1 -26 -7 -20 -10 -20 -10 -5 8 17 21 54 88 63 117 3 10 23 26
44 35 51 23 360 25 405 3z m-540 -113 c-11 -18 -26 -44 -34 -58 -8 -14 -23
-36 -33 -50 -32 -42 -9 7 36 76 42 66 65 89 31 32z m415 -87 c-13 -11 -42 -22
-64 -25 l-39 -6 30 15 c17 8 38 14 47 15 9 0 20 5 23 10 3 6 11 10 17 10 6 0
0 -9 -14 -19z m-147 -52 c32 -23 59 -46 59 -50 0 -5 9 -9 19 -9 11 0 23 -4 26
-10 4 -6 -32 -10 -101 -10 -95 0 -112 3 -141 23 -18 12 -33 26 -33 30 0 4 15
14 33 22 19 8 39 21 47 29 18 23 25 21 91 -25z m124 -9 c13 -6 15 -9 5 -9 -8
0 -22 4 -30 9 -18 12 -2 12 25 0z m45 -26 c0 -8 -19 -13 -24 -6 -3 5 1 9 9 9
8 0 15 -2 15 -3z m-453 -10 c-3 -3 -12 -4 -19 -1 -8 3 -5 6 6 6 11 1 17 -2 13
-5z m265 -134 c16 -9 25 -19 22 -22 -6 -6 -143 26 -189 45 l-30 12 45 5 c46 6
99 -8 152 -40z m113 -10 c-21 -22 -40 -38 -43 -36 -4 4 69 75 78 76 2 0 -13
-18 -35 -40z m-240 -407 c15 -22 31 -133 19 -132 -18 2 -79 82 -66 86 6 3 9 9
6 14 -4 6 -11 6 -19 -1 -20 -17 -53 34 -35 54 6 8 18 12 26 9 8 -3 14 0 14 6
0 15 36 -9 55 -36z m385 -9 c0 -7 -4 -15 -9 -18 -5 -4 -7 2 -4 13 3 10 0 22
-6 25 -6 4 -11 2 -11 -4 0 -6 -4 -8 -10 -5 -5 3 -10 11 -10 16 0 6 5 7 10 4 6
-3 10 0 10 7 1 17 30 -21 30 -38z m-2164 -111 c20 -32 59 -84 86 -115 l49 -57
-26 -7 c-15 -4 -50 -2 -78 3 l-52 10 59 2 c48 1 58 4 48 14 -7 6 -39 12 -70
13 -56 1 -58 2 -79 40 -26 45 -31 72 -5 32 9 -16 20 -28 23 -28 13 0 19 33 9
45 -6 7 -7 20 -4 29 4 10 -1 25 -12 37 -16 17 -16 22 -4 29 8 6 16 10 18 10 1
0 19 -26 38 -57z m39 27 c18 -35 11 -39 -16 -7 -21 25 -24 37 -9 37 5 0 16
-13 25 -30z m919 -1 c9 -46 7 -59 -6 -56 -10 1 -13 -18 -13 -70 l0 -71 -65
-26 c-35 -14 -66 -23 -69 -21 -10 11 25 36 68 49 25 8 38 15 27 15 -13 1 -16
6 -11 19 6 16 36 172 34 182 0 3 -6 -10 -12 -27 -15 -41 -32 -38 -32 4 0 31 2
33 36 33 33 0 37 -3 43 -31z m-1038 -14 c9 -38 -2 -41 -21 -6 -14 27 -14 31 0
31 8 0 17 -11 21 -25z m-34 -29 c-3 -5 -9 -1 -13 10 -12 31 -10 39 5 19 8 -11
12 -24 8 -29z m1932 -55 c-4 -4 -84 47 -84 54 0 2 20 -8 44 -23 24 -15 42 -29
40 -31z m-105 25 c6 -8 25 -19 42 -26 16 -7 28 -15 25 -17 -2 -3 -15 1 -28 8
-33 18 -72 49 -61 49 6 0 16 -6 22 -14z m138 -8 c-3 -8 -6 -5 -6 6 -1 11 2 17
5 13 3 -3 4 -12 1 -19z m-1154 -43 c4 -27 3 -35 -3 -25 -5 8 -10 28 -10 44 0
39 6 30 13 -19z m1034 1 c15 -8 36 -17 45 -20 14 -4 15 -10 6 -43 -18 -65 -75
-153 -99 -153 -6 0 -8 31 -5 73 2 39 5 91 5 115 1 46 6 49 48 28z m199 -226
c17 -67 19 -233 3 -210 -9 13 -10 13 -6 0 2 -8 10 -15 18 -15 8 0 16 -17 21
-45 4 -25 12 -54 17 -65 11 -21 31 -126 31 -159 0 -50 -21 8 -41 114 -12 63
-27 120 -32 125 -7 7 -8 6 -3 -2 10 -18 -5 -234 -15 -227 -5 3 -9 0 -9 -5 0
-6 5 -11 11 -11 6 0 9 -6 6 -12 -2 -7 -11 -12 -21 -10 -9 2 -16 -2 -16 -7 0
-13 63 -25 90 -18 22 6 50 -16 50 -39 0 -10 -13 -14 -45 -14 -58 0 -105 -25
-105 -55 1 -5 7 -1 15 9 21 28 17 9 -10 -49 l-23 -50 5 50 c10 86 14 80 -47
77 -64 -4 -123 5 -115 17 3 5 -2 12 -11 15 -13 5 -14 9 -4 21 9 11 35 15 100
15 l87 0 6 83 c7 88 -7 444 -23 592 -5 50 -9 97 -9 105 0 18 55 -150 75 -230z
m-2092 183 c19 -28 22 -39 13 -45 -20 -13 -24 -10 -31 20 -4 15 -9 35 -12 45
-8 27 3 20 30 -20z m416 -91 c19 -19 51 -44 72 -57 50 -33 52 -39 22 -74 -21
-25 -22 -30 -7 -25 10 4 28 16 41 28 l23 20 44 -24 c55 -30 66 -22 25 18 -35
35 -41 56 -7 24 22 -21 104 -64 143 -76 15 -4 24 -2 28 9 3 8 1 15 -4 15 -6 0
-10 10 -10 22 l0 22 16 -22 c26 -38 53 -42 82 -13 l25 25 11 -31 c9 -26 14
-29 28 -19 14 8 23 8 38 -2 26 -16 29 -15 23 6 -6 26 22 48 42 32 8 -7 15 -18
15 -26 0 -10 9 -8 34 7 34 20 50 15 42 -13 -2 -7 -7 -26 -11 -42 -5 -25 -4
-28 9 -17 16 13 36 93 36 141 0 34 3 35 66 19 35 -9 45 -17 50 -38 12 -53 16
-61 29 -61 7 0 15 7 19 15 14 36 24 11 20 -47 -10 -136 -50 -257 -110 -328
-32 -37 -17 -39 26 -4 17 15 33 24 35 22 6 -6 -23 -105 -41 -140 -17 -32 -201
-158 -299 -204 -111 -51 -223 -94 -250 -94 -27 0 -146 45 -228 86 -77 39 -243
150 -293 196 -75 69 -104 134 -54 121 32 -8 23 13 -10 27 -52 21 -87 95 -40
83 16 -4 19 -2 14 11 -4 10 -1 16 9 16 29 0 27 18 -4 47 -38 36 -65 92 -83
179 -14 70 -12 93 5 61 19 -33 39 -20 39 27 0 48 9 56 65 56 32 0 35 -3 40
-37 10 -61 27 -123 36 -128 4 -3 5 11 2 31 -4 26 -3 35 5 30 6 -3 13 -2 17 4
13 20 33 9 40 -22 l8 -33 6 30 c7 34 36 46 45 18 4 -12 16 -18 36 -18 20 0 29
4 25 13 -2 7 4 12 15 12 53 0 24 52 -57 100 -32 18 -60 35 -62 37 -2 1 2 9 8
17 11 14 16 13 37 -1 29 -19 31 -7 4 27 -11 14 -20 30 -20 35 0 6 13 -6 28
-25 15 -19 43 -50 62 -68z m610 84 c0 -2 -7 -7 -16 -10 -8 -3 -12 -2 -9 4 6
10 25 14 25 6z m310 -43 l18 -41 -42 21 c-41 21 -42 23 -27 44 21 29 29 26 51
-24z m-463 -15 c-2 -7 0 -21 5 -32 8 -14 7 -17 -4 -14 -16 6 -24 58 -8 58 6 0
10 -6 7 -12z m563 -33 c0 -8 -7 -15 -15 -15 -8 0 -15 5 -15 11 0 5 5 7 10 4 6
-3 10 -1 10 4 0 6 2 11 5 11 3 0 5 -7 5 -15z m-807 -35 c3 -11 3 -20 1 -20 -2
0 -8 9 -14 20 -6 11 -7 20 -2 20 6 0 12 -9 15 -20z m251 -25 c-4 -8 -10 -15
-15 -15 -5 0 -9 7 -9 15 0 8 7 15 15 15 9 0 12 -6 9 -15z m-199 -25 c10 -11
16 -20 13 -20 -3 0 -13 9 -23 20 -10 11 -16 20 -13 20 3 0 13 -9 23 -20z m89
-16 c3 -8 2 -12 -4 -9 -6 3 -10 10 -10 16 0 14 7 11 14 -7z m210 1 c-4 -8 -11
-15 -16 -15 -6 0 -5 6 2 15 7 8 14 15 16 15 2 0 1 -7 -2 -15z m-1239 -114 l5
-36 -14 30 c-7 17 -16 53 -19 80 l-5 50 14 -44 c7 -25 16 -61 19 -80z m1275
115 c0 -2 -7 -7 -16 -10 -8 -3 -12 -2 -9 4 6 10 25 14 25 6z m-270 -27 c0 -6
-4 -7 -10 -4 -5 3 -10 11 -10 16 0 6 5 7 10 4 6 -3 10 -11 10 -16z m-856 -226
c25 -34 64 -75 87 -90 43 -28 39 -45 -4 -21 -59 32 -137 128 -137 169 0 15 -1
17 54 -58z m1495 -5 c-25 -51 -69 -111 -76 -105 -2 3 9 24 25 48 16 24 37 56
46 72 25 42 29 32 5 -15z m-1568 -28 c3 -3 14 -20 23 -37 19 -37 36 -43 36
-13 0 19 1 19 25 -2 14 -12 32 -35 40 -51 13 -26 13 -28 -5 -22 -16 5 -19 3
-13 -12 4 -12 0 -10 -14 7 -11 13 -18 30 -16 38 3 7 0 12 -8 10 -8 -2 -16 -16
-19 -33 -5 -28 -7 -26 -29 33 -13 34 -27 62 -31 62 -8 0 -30 45 -30 63 0 6 8
0 17 -13 9 -14 20 -27 24 -30z m-42 -61 c5 -35 12 -72 16 -81 4 -10 3 -18 -3
-18 -16 0 -24 30 -29 105 -6 85 3 82 16 -6z m2661 -27 c0 -12 -3 -12 -15 -2
-8 7 -15 13 -15 15 0 1 7 2 15 2 8 0 15 -7 15 -15z m-2365 -33 c5 -5 -5 -4
-23 2 -17 6 -32 13 -32 16 0 7 43 -8 55 -18z m1465 -25 c0 -4 -19 -42 -42 -85
-27 -50 -45 -75 -49 -67 -5 7 -3 15 3 19 6 4 8 13 5 20 -7 21 54 119 75 119 4
0 8 -3 8 -6z m1028 -61 c0 -26 -5 -27 -44 -13 -21 8 -24 14 -16 22 7 7 12 20
12 30 0 18 1 18 24 1 13 -10 24 -28 24 -40z m-997 16 c-9 -22 -10 -22 -10 -3
-1 11 2 24 6 27 12 12 14 0 4 -24z m-206 -69 c5 -8 11 -7 21 1 27 22 14 -7
-16 -36 -16 -16 -30 -23 -30 -17 0 7 -4 12 -10 12 -5 0 -10 -5 -10 -10 0 -6
-10 -21 -23 -33 -13 -12 -16 -17 -7 -11 28 20 40 25 40 17 0 -8 -99 -84 -140
-107 -8 -5 1 9 21 30 46 50 81 107 104 167 18 47 18 47 31 22 7 -14 16 -30 19
-35z m-1384 30 c16 0 18 -3 10 -19 -6 -10 -7 -21 -4 -25 3 -3 -1 -6 -10 -6
-20 0 -67 21 -67 30 0 13 25 30 38 25 8 -3 22 -5 33 -5z m-119 -102 c-15 -15
-26 -4 -18 18 5 13 9 15 18 6 9 -9 9 -15 0 -24z m2548 16 c0 -2 -7 -4 -15 -4
-8 0 -15 4 -15 10 0 5 7 7 15 4 8 -4 15 -8 15 -10z m-957 -21 c-6 -15 -6 -15
-27 -7 -24 9 -19 19 8 19 15 0 22 -5 19 -12z m1003 -4 c19 -22 19 -22 -3 -10
-24 12 -39 31 -25 31 5 0 17 -10 28 -21z m-2345 4 c0 6 5 -1 10 -17 11 -39 4
-44 -28 -20 -37 28 -42 47 -9 34 19 -7 26 -6 27 3z m1059 -43 c-37 -32 -73
-43 -50 -15 7 9 15 13 17 11 3 -3 14 4 26 15 11 10 26 19 31 19 6 -1 -5 -14
-24 -30z m-160 -92 c-47 -23 -97 -47 -112 -54 -14 -8 -37 -14 -50 -13 -12 0
22 18 77 40 55 21 105 45 112 52 7 7 23 13 36 14 12 1 -16 -17 -63 -39z m700
37 c0 -17 -69 -255 -79 -270 -3 -5 -11 -32 -18 -60 -18 -75 -48 -179 -54 -190
-4 -5 -10 -60 -13 -120 -11 -167 13 -252 109 -384 30 -41 26 -48 -15 -31 -52
22 -154 199 -168 292 -6 36 -12 52 -21 50 -9 -2 -12 4 -8 18 4 17 0 20 -23 20
-16 0 -32 5 -35 10 -4 6 -11 8 -16 5 -5 -4 -9 2 -10 12 0 10 -6 0 -13 -22
l-12 -40 -7 34 c-10 47 -9 104 3 153 6 24 17 72 25 107 9 36 17 66 19 68 2 2
15 -1 29 -6 18 -7 27 -7 31 2 2 7 5 4 5 -7 1 -14 6 -17 25 -12 14 3 28 1 31
-4 9 -15 25 -2 25 21 0 10 4 19 9 19 6 0 13 20 17 45 4 28 11 45 20 45 19 0
18 -9 -11 -87 -14 -37 -24 -74 -22 -83 3 -9 9 -3 17 17 6 18 16 31 20 28 4 -3
10 8 13 23 19 101 82 310 103 344 5 8 24 11 24 3z m893 -100 c-1 -19 3 -35 8
-35 14 0 10 -62 -6 -90 -8 -14 -15 -20 -15 -15 -1 6 -4 19 -7 30 -13 54 -23
141 -17 158 6 18 7 18 22 3 9 -9 16 -31 15 -51z m-610 -40 c-14 -39 -25 -52
-53 -63 l-34 -14 41 45 c22 24 44 54 48 66 4 13 9 21 11 18 3 -2 -3 -26 -13
-52z m-1220 -22 c-9 -27 -19 -52 -23 -56 -6 -7 -30 64 -30 87 0 3 15 7 33 9
17 2 33 5 34 5 1 1 -5 -19 -14 -45z m-300 -51 c10 -10 14 -22 10 -27 -5 -4 -3
-5 3 -2 7 4 22 -1 35 -12 65 -50 167 -100 215 -107 52 -6 119 13 224 66 29 15
66 19 90 11 13 -5 -109 -60 -133 -61 -17 0 -26 -4 -22 -10 13 -20 -107 -92
-124 -75 -3 3 5 8 17 12 12 3 20 9 17 13 -3 5 0 12 6 16 8 4 9 3 5 -4 -4 -7
-1 -12 8 -12 16 0 33 19 19 21 -4 1 -37 2 -73 3 -36 2 -72 5 -80 8 -8 3 -11 3
-6 0 4 -2 2 -9 -5 -14 -10 -6 -4 -7 16 -4 17 3 37 1 45 -4 11 -8 8 -9 -15 -5
l-30 5 34 -15 c18 -9 31 -18 28 -21 -6 -6 -144 52 -165 69 -7 5 -10 12 -8 15
3 2 13 -3 22 -12 18 -19 45 -18 52 2 3 9 -3 11 -21 7 -14 -4 -28 -2 -32 5 -4
6 -15 8 -26 5 -13 -4 -44 8 -91 35 -49 28 -74 38 -82 30 -5 -5 -7 -11 -3 -11
4 -1 11 -2 15 -3 5 0 16 -9 26 -18 18 -19 12 -43 -9 -34 -8 3 -11 -2 -9 -12 3
-9 -9 -33 -26 -52 -17 -19 -38 -48 -46 -63 -8 -16 -35 -54 -59 -85 -24 -32
-52 -85 -63 -118 -11 -34 -28 -76 -38 -95 -19 -38 -46 -137 -74 -282 -14 -69
-20 -140 -20 -240 0 -78 -4 -148 -9 -156 -14 -22 -34 -7 -59 41 -33 68 -31
203 8 384 16 76 38 166 49 199 28 87 119 276 180 375 56 90 172 249 182 250 3
0 13 -8 22 -18z m1998 -4 c0 -7 1 -39 2 -72 l2 -59 -53 -20 c-29 -11 -54 -18
-55 -16 -2 2 -1 33 2 68 6 59 8 66 41 87 40 26 60 30 61 12z m-1357 -13 c3
-10 1 -15 -7 -13 -6 1 -22 -2 -35 -6 -25 -8 -21 -26 6 -26 15 0 15 2 2 10 -13
9 -13 10 0 11 20 2 22 2 45 -6 11 -4 16 -3 10 2 -18 15 -15 32 7 39 17 5 32
-5 75 -50 30 -31 72 -68 92 -82 38 -24 38 -25 29 -67 -5 -23 -12 -54 -15 -69
-6 -32 -19 -36 -27 -10 -4 9 -23 35 -44 57 -20 22 -59 66 -86 98 -27 31 -52
57 -57 57 -5 0 -27 -12 -49 -26 -21 -14 -45 -24 -51 -22 -7 2 2 10 19 17 18 8
32 19 32 26 0 16 -28 28 -42 18 -7 -4 -8 -1 -3 6 5 10 76 48 91 51 1 0 5 -7 8
-15z m-974 -50 c11 -13 7 -33 -24 -125 -20 -60 -36 -115 -36 -122 0 -7 -6 -25
-14 -40 -8 -15 -24 -69 -37 -120 -30 -128 -48 -178 -64 -178 -8 0 -16 4 -19 8
-9 15 -7 106 3 152 5 25 14 99 21 165 14 150 17 164 46 175 13 5 26 20 29 35
3 14 7 36 10 49 8 39 53 40 85 1z m1266 7 c-18 -16 -18 -16 -6 6 6 13 14 21
18 18 3 -4 -2 -14 -12 -24z m-1823 -34 c-8 -43 -55 -141 -90 -187 -34 -45 -63
-77 -63 -69 0 11 33 86 82 186 50 102 84 135 71 70z m3184 -104 c38 -43 41
-50 30 -68 -21 -30 -31 -29 -51 6 -17 28 -32 50 -74 103 -5 6 -13 30 -20 55
l-11 45 42 -47 c23 -26 61 -68 84 -94z m-497 51 c0 -60 -1 -63 -27 -70 -57
-14 -151 -26 -261 -32 -98 -5 -112 -4 -107 9 4 9 -1 18 -11 22 -11 4 -15 2
-11 -6 3 -9 -8 -14 -34 -16 -29 -2 -40 2 -49 17 -25 48 22 90 102 91 32 0 79
7 105 16 26 9 96 19 155 23 59 4 111 10 114 14 16 15 24 -8 24 -68z m380 1 c0
-5 7 -16 15 -25 22 -22 86 -133 81 -138 -14 -15 -80 79 -120 171 -32 73 -32
79 -1 36 14 -19 25 -38 25 -44z m81 52 c6 -13 27 -36 45 -51 19 -16 34 -35 34
-43 0 -21 -7 -18 -48 27 -43 47 -67 89 -53 89 6 0 16 -10 22 -22z m-3102 -44
c1 12 6 16 17 12 9 -3 20 -6 25 -6 25 0 -20 -194 -67 -285 -15 -29 -15 -26
-10 55 5 85 5 85 -10 40 -7 -25 -14 -53 -14 -62 0 -10 -5 -18 -11 -18 -14 0
-6 75 22 203 22 107 32 124 40 77 4 -19 7 -27 8 -16z m114 -26 c6 -21 7 -21
25 -5 18 16 20 16 35 0 13 -16 14 -36 7 -155 -5 -76 -11 -142 -14 -147 -11
-17 -44 -1 -39 19 7 26 -13 33 -30 10 -12 -17 -16 -18 -26 -6 -15 18 -17 240
-2 279 13 33 36 35 44 5z m137 -150 c-7 -62 -14 -122 -15 -133 -2 -11 -4 -28
-4 -37 -1 -10 -8 -18 -16 -18 -13 0 -15 22 -15 139 0 76 5 152 11 169 11 31
11 31 31 12 20 -18 20 -23 8 -132z m74 80 c-5 -103 -26 -268 -34 -268 -13 0
-20 43 -20 130 0 125 10 192 27 186 7 -3 16 1 19 9 4 8 7 15 8 15 2 0 1 -33 0
-72z m2599 17 c7 3 31 -28 57 -73 55 -95 54 -92 40 -92 -7 0 -26 -10 -43 -22
l-30 -22 -15 22 c-18 28 -36 29 -22 1 9 -15 8 -24 -1 -35 -11 -13 -15 -11 -32
16 -21 33 -36 35 -18 2 16 -31 14 -39 -14 -44 -19 -4 -26 0 -34 23 -5 16 -15
29 -20 29 -13 0 -13 -7 -2 -35 9 -22 -4 -45 -25 -45 -8 0 -19 12 -24 26 -6 14
-15 22 -21 18 -8 -4 -8 -9 0 -17 16 -16 14 -44 -3 -50 -16 -7 -53 48 -60 89
-6 29 12 76 25 68 5 -3 9 7 9 21 0 37 18 68 36 61 12 -5 14 2 9 32 -3 20 -2
31 1 25 3 -7 10 -13 16 -13 6 0 17 -8 25 -17 12 -16 13 -15 8 15 -7 37 8 43
27 12 18 -28 30 -25 16 5 -14 32 -4 43 20 22 25 -23 31 -21 25 6 -6 20 -4 20
16 -5 12 -15 27 -25 34 -23z m-840 -41 c-10 -7 -13 -14 -6 -14 6 0 20 -3 30
-6 15 -5 15 -4 3 5 -8 5 -11 13 -7 17 4 4 13 2 19 -4 7 -7 22 -12 35 -12 17 0
23 -6 23 -23 0 -41 -81 -100 -112 -81 -9 6 -5 11 12 16 23 7 23 7 -4 4 -43 -6
-85 12 -92 38 -3 13 -4 40 -2 62 2 31 7 39 23 40 34 1 75 16 76 28 0 6 5 -4
10 -22 8 -28 7 -36 -8 -48z m127 -114 c0 -5 -2 -10 -4 -10 -3 0 -8 5 -11 10
-3 6 -1 10 4 10 6 0 11 -4 11 -10z m-32 -57 c3 -17 -2 -23 -16 -23 -24 0 -46
25 -37 40 12 19 50 7 53 -17z m-78 -4 c0 -7 60 -92 77 -109 3 -3 2 6 -2 20 -6
20 -5 22 5 13 7 -6 18 -9 26 -6 14 5 58 -41 105 -109 35 -52 37 -69 6 -39 -14
12 -31 19 -39 16 -17 -7 -58 42 -52 60 4 11 -46 38 -55 30 -2 -3 5 -14 17 -25
11 -11 37 -44 57 -75 20 -30 40 -55 44 -55 10 0 41 -73 41 -96 0 -10 -9 -57
-21 -104 -11 -47 -21 -99 -21 -117 0 -40 -20 -68 -41 -60 -47 18 -119 198
-138 344 -6 49 -15 104 -20 123 -16 65 -16 215 1 205 6 -3 10 -10 10 -16z
m110 -59 c0 -5 -2 -10 -4 -10 -3 0 -8 5 -11 10 -3 6 -1 10 4 10 6 0 11 -4 11
-10z m-1414 -64 c20 -20 34 -44 34 -58 0 -74 -110 -110 -186 -61 -29 19 -54
71 -45 95 12 33 62 58 115 58 41 0 53 -5 82 -34z m1021 -28 c-3 -7 -5 -2 -5
12 0 14 2 19 5 13 2 -7 2 -19 0 -25z m-274 -9 c66 -18 96 -75 67 -129 -22 -40
-115 -52 -167 -20 -41 24 -50 58 -28 103 25 52 60 65 128 46z m296 -64 l0 -20
-9 20 c-5 11 -9 29 -9 40 l0 20 9 -20 c5 -11 9 -29 9 -40z m-840 -5 c11 0 37
-12 58 -26 l38 -26 6 34 c6 32 9 27 13 -24 1 -7 7 -17 14 -21 6 -4 12 -19 12
-32 0 -19 5 -25 22 -25 21 0 21 0 3 -14 -17 -12 -21 -12 -31 2 -8 11 -13 12
-18 4 -4 -7 -2 -12 3 -12 6 0 11 -11 11 -25 0 -29 24 -34 39 -7 7 11 11 12 11
4 0 -16 -24 -42 -39 -42 -17 0 -80 -74 -69 -81 11 -7 -17 -58 -39 -72 -7 -4
-13 -15 -13 -22 0 -8 -9 -15 -20 -15 -11 0 -20 6 -20 13 0 7 -10 18 -21 26
-20 12 -21 11 -16 -6 5 -13 2 -12 -9 5 -9 12 -27 22 -39 22 -27 0 -44 19 -67
74 -9 22 -17 35 -17 29 -1 -7 -5 -13 -11 -13 -14 0 -13 37 1 42 9 3 9 9 0 25
-16 32 -14 56 10 82 14 14 19 31 16 46 -2 14 0 22 4 19 5 -2 17 4 29 16 11 11
33 20 50 20 17 0 30 5 30 10 0 7 6 7 19 0 11 -5 29 -10 40 -10z m1316 -21 c4
-6 14 -8 21 -5 19 7 94 -40 94 -59 0 -8 3 -14 8 -13 21 4 42 -17 42 -44 0 -27
-3 -29 -31 -26 -36 3 -62 33 -41 47 10 6 10 10 -2 20 -10 8 -16 9 -21 2 -10
-17 -67 17 -63 37 2 9 -6 25 -17 34 -11 10 -15 17 -8 18 6 0 15 -5 18 -11z
m158 -15 c15 -4 27 -10 27 -15 0 -17 -58 -9 -81 12 l-24 21 25 -6 c14 -4 37
-9 53 -12z m-1293 -9 c0 -8 -4 -15 -10 -15 -5 0 -10 7 -10 15 0 8 5 15 10 15
6 0 10 -7 10 -15z m1365 -105 c3 -5 14 -10 24 -10 10 0 35 -13 56 -30 21 -16
33 -30 26 -30 -6 0 -19 9 -28 20 -27 32 -44 26 -30 -10 11 -28 15 -30 52 -29
50 3 105 -33 105 -67 0 -19 -5 -22 -28 -20 -68 9 -112 28 -132 56 -12 17 -36
34 -58 40 -20 6 -45 16 -55 24 -16 12 -16 14 -1 20 8 3 28 3 42 0 15 -3 22 -2
16 3 -18 14 -25 43 -9 43 7 0 17 -4 20 -10z m429 -64 c-5 -31 -3 -34 26 -45
18 -6 72 -16 120 -22 90 -12 121 -22 106 -36 -14 -14 -184 -5 -236 12 -66 22
-75 34 -59 82 20 62 55 69 43 9z m-2216 -2 c48 -31 8 -131 -59 -148 -48 -12
-104 0 -129 27 -16 16 -20 32 -18 66 3 38 7 46 38 62 39 21 128 17 168 -7z
m1778 -34 c16 -7 24 -14 18 -20 -10 -10 -141 -29 -149 -22 -13 14 -2 30 28 40
43 14 70 14 103 2z m-936 -25 c44 -23 69 -61 61 -92 -11 -40 -50 -65 -105 -65
-76 0 -124 44 -111 102 13 61 90 88 155 55z m199 -104 c21 -41 22 -48 11 -110
-7 -36 -16 -71 -21 -76 -4 -6 -6 -31 -5 -55 2 -25 2 -60 -1 -78 l-5 -32 -23
24 c-34 37 -41 139 -20 291 18 132 26 155 35 110 4 -17 17 -50 29 -74z m1108
44 c80 -38 69 -75 -22 -75 -53 0 -78 20 -79 63 -1 33 2 37 23 37 13 0 48 -11
78 -25z m181 -41 c28 -20 29 -60 1 -67 -18 -5 -83 12 -109 28 -4 3 -3 16 3 30
10 20 19 25 47 25 20 0 46 -7 58 -16z m214 -24 c-3 -42 -24 -60 -71 -60 -45 0
-58 8 -66 41 -6 24 -3 28 37 42 24 8 57 14 73 13 28 -1 30 -3 27 -36z m382 21
c10 -15 36 -124 31 -129 -6 -7 -55 99 -55 121 0 18 15 23 24 8z m-1014 -21
c24 -16 -11 -36 -84 -49 -87 -15 -113 -14 -120 6 -10 25 3 32 79 42 97 12 108
12 125 1z m-807 -65 c-3 -9 -8 -14 -10 -11 -3 3 -2 9 2 15 9 16 15 13 8 -4z
m-1127 -174 c68 -36 84 -92 40 -136 -62 -62 -198 -28 -198 50 0 89 75 130 158
86z m-514 -189 c40 -127 93 -215 180 -302 35 -35 48 -57 58 -97 14 -60 30 -61
30 -2 0 21 2 39 5 39 2 0 28 -15 57 -34 122 -77 294 -141 503 -186 138 -30
488 -39 585 -16 260 62 573 169 620 211 25 22 32 19 69 -33 19 -26 58 -67 89
-92 95 -79 102 -87 102 -123 0 -49 -26 -130 -75 -232 -83 -174 -270 -330 -550
-458 -323 -147 -384 -169 -549 -197 l-123 -21 -89 22 c-159 39 -220 65 -407
177 -102 61 -145 94 -215 166 -124 127 -209 239 -228 301 -17 52 -17 53 6 91
33 54 87 122 132 165 20 20 40 48 44 63 3 14 10 29 15 32 12 7 12 34 0 34 -5
0 -11 -10 -13 -22 -2 -17 -11 -24 -30 -26 -24 -3 -32 4 -55 44 -16 25 -47 76
-70 113 -23 36 -40 67 -38 69 2 2 13 -1 24 -8 29 -15 27 -8 -19 58 -71 105
-101 185 -107 290 -3 52 -2 92 3 92 5 0 26 -53 46 -118z m1418 71 c31 -35 31
-70 -1 -99 -24 -21 -113 -23 -154 -3 -26 12 -30 21 -33 58 -5 67 16 84 97 79
56 -4 67 -8 91 -35z m1256 -68 c4 -8 3 -23 0 -32 -6 -15 -8 -15 -16 -3 -13 20
-12 50 0 50 6 0 13 -7 16 -15z m-2163 -156 c62 -13 88 -38 89 -89 1 -39 -16
-58 -63 -70 -49 -14 -112 2 -134 33 -23 33 -19 84 10 112 28 29 25 28 98 14z
m932 -86 c45 -49 46 -94 3 -126 -52 -39 -156 -20 -178 32 -26 65 21 121 101
121 40 0 53 -5 74 -27z m-1076 -65 c11 -34 18 -64 15 -67 -3 -3 -17 1 -32 9
-32 19 -51 82 -32 105 20 25 27 18 49 -47z m-1000 -32 c28 -88 27 -109 -10
-140 -40 -34 -67 -34 -75 0 -8 31 1 134 16 187 10 32 14 36 30 27 10 -5 27
-38 39 -74z m3258 -72 c4 -12 -34 -64 -48 -64 -12 0 -12 22 1 55 10 26 39 32
47 9z m-967 -72 c0 -25 -28 -42 -39 -24 -4 6 -5 30 -3 53 l4 42 19 -24 c10
-13 19 -34 19 -47z m-2170 -142 c36 -61 48 -74 99 -99 65 -33 84 -52 79 -78
-5 -26 -49 -28 -96 -4 -44 23 -151 117 -183 162 -24 34 -19 61 14 77 38 18 45
14 87 -58z m2883 -88 c26 -28 29 -62 5 -62 -20 0 -68 42 -68 59 0 40 27 41 63
3z m-2381 -194 c-39 -63 -79 -144 -101 -203 -13 -33 -33 -85 -46 -116 -60
-144 -113 -400 -135 -649 -7 -69 -14 -127 -16 -129 -9 -10 -3 132 11 259 28
238 38 284 115 500 7 19 25 64 41 100 15 36 33 81 39 100 14 49 102 198 108
182 2 -6 -5 -27 -16 -44z m-272 -1423 c6 -60 17 -135 25 -165 7 -30 25 -125
40 -210 57 -326 87 -467 120 -568 19 -57 37 -123 40 -145 l5 -42 -29 60 c-75
159 -131 409 -194 875 -35 252 -40 311 -30 356 l8 39 2 -45 c2 -25 8 -94 13
-155z m1486 -49 c17 -13 19 -25 16 -103 -3 -90 -8 -123 -20 -123 -11 0 -80
113 -87 143 -9 36 11 85 38 90 12 2 25 5 28 6 3 0 14 -5 25 -13z m-1210 -1170
c26 -57 68 -196 61 -202 -5 -6 -52 109 -70 171 -8 28 -18 58 -22 68 -4 9 -4
17 -1 17 4 0 18 -25 32 -54z m104 -293 c13 -32 29 -65 36 -73 9 -12 54 -163
54 -185 0 -3 -6 -5 -13 -5 -13 0 -107 267 -107 303 0 28 7 20 30 -40z"/>
<path d="M3261 7834 c0 -11 3 -14 6 -6 3 7 2 16 -1 19 -3 4 -6 -2 -5 -13z"/>
<path d="M3985 7756 c10 -14 19 -26 22 -26 7 0 -17 39 -28 46 -6 3 -3 -5 6
-20z"/>
<path d="M3230 7750 c-4 -27 2 -75 11 -90 6 -11 8 -7 8 15 -2 37 -16 95 -19
75z"/>
<path d="M4070 7603 c1 -12 39 -79 40 -70 0 12 -28 77 -34 77 -4 0 -6 -3 -6
-7z"/>
<path d="M4321 7173 c8 -10 22 -27 33 -38 18 -20 18 -20 6 5 -15 27 -35 50
-46 50 -3 0 0 -8 7 -17z"/>
<path d="M4521 7155 c1 -11 5 -31 9 -45 8 -24 8 -24 9 5 0 17 -4 37 -9 45 -8
12 -10 11 -9 -5z"/>
<path d="M4693 6723 c-3 -10 -8 -22 -10 -28 -3 -5 3 -1 11 9 16 20 21 36 11
36 -3 0 -8 -8 -12 -17z"/>
<path d="M4876 6463 c9 -38 14 -42 14 -10 0 14 -5 29 -10 32 -7 4 -8 -3 -4
-22z"/>
<path d="M3922 6353 c-50 -4 -53 -5 -45 -26 4 -12 8 -55 7 -94 0 -40 1 -73 3
-73 13 0 43 93 43 133 0 40 3 47 19 47 11 0 23 5 26 10 3 6 5 9 3 8 -2 -1 -27
-3 -56 -5z"/>
<path d="M4749 5643 c-13 -16 -12 -17 4 -4 9 7 17 15 17 17 0 8 -8 3 -21 -13z"/>
<path d="M3276 5551 c-19 -7 -19 -8 0 -13 13 -3 21 0 21 8 0 8 -1 14 -1 13 -1
0 -10 -4 -20 -8z"/>
<path d="M3648 5463 c7 -3 16 -2 19 1 4 3 -2 6 -13 5 -11 0 -14 -3 -6 -6z"/>
<path d="M3638 5443 c7 -3 16 -2 19 1 4 3 -2 6 -13 5 -11 0 -14 -3 -6 -6z"/>
<path d="M3953 5563 c-15 -5 -17 -23 -4 -23 5 0 11 7 15 15 3 8 4 15 3 14 -1
0 -8 -3 -14 -6z"/>
<path d="M3970 5540 c-8 -5 -26 -6 -40 -3 -23 5 -22 3 13 -32 34 -35 77 -54
77 -34 0 4 3 14 6 22 3 10 -2 18 -15 22 -12 3 -19 10 -16 15 8 13 -9 20 -25
10z m13 -33 c-4 -7 0 -8 12 -3 15 5 16 4 5 -9 -12 -14 -15 -14 -31 1 -21 19
-16 36 6 28 8 -4 12 -11 8 -17z"/>
<path d="M2397 5406 c-4 -10 -7 -32 -6 -49 1 -31 1 -31 10 7 10 43 7 72 -4 42z"/>
<path d="M5400 5248 c0 -9 5 -20 10 -23 13 -8 13 5 0 25 -8 13 -10 13 -10 -2z"/>
<path d="M5370 5231 c0 -6 4 -13 10 -16 6 -3 7 1 4 9 -7 18 -14 21 -14 7z"/>
<path d="M4670 5031 c0 -5 5 -13 10 -16 6 -3 10 -2 10 4 0 5 -4 13 -10 16 -5
3 -10 2 -10 -4z"/>
<path d="M3632 3024 c3 -44 21 -53 26 -13 2 15 -4 31 -13 39 -15 12 -16 10
-13 -26z"/>
<path d="M2905 7875 c-11 -19 -16 -37 -12 -41 4 -4 14 10 22 31 21 48 14 55
-10 10z"/>
<path d="M2851 7675 c-1 -11 -4 -31 -6 -45 l-6 -25 11 25 c6 13 9 33 7 45 -4
19 -4 19 -6 0z"/>
<path d="M2437 7635 c-9 -20 -17 -44 -17 -54 0 -10 -7 -38 -16 -62 -24 -67
-42 -129 -38 -129 10 0 64 136 64 160 0 15 7 47 15 70 19 54 14 62 -8 15z"/>
<path d="M4863 7124 c6 -37 13 -51 22 -43 8 9 -7 79 -18 79 -6 0 -7 -15 -4
-36z"/>
<path d="M2860 7061 c0 -6 4 -13 10 -16 6 -3 7 1 4 9 -7 18 -14 21 -14 7z"/>
<path d="M3156 6757 c3 -10 9 -15 12 -12 3 3 0 11 -7 18 -10 9 -11 8 -5 -6z"/>
<path d="M5320 6511 c0 -11 4 -22 9 -25 4 -3 6 6 3 19 -5 30 -12 33 -12 6z"/>
<path d="M2290 5758 c0 -9 7 -22 17 -29 15 -13 15 -12 3 11 -17 34 -20 36 -20
18z"/>
<path d="M5633 5745 c9 -16 23 -39 32 -50 9 -11 7 -2 -6 20 -27 49 -47 72 -26
30z"/>
<path d="M5930 5640 c0 -5 5 -10 11 -10 5 0 7 5 4 10 -3 6 -8 10 -11 10 -2 0
-4 -4 -4 -10z"/>
<path d="M2037 5504 c-9 -10 -9 -26 2 -43 8 -12 12 -12 25 -2 20 17 21 31 2
31 -8 0 -16 5 -18 11 -2 5 -7 7 -11 3z"/>
<path d="M2052 5063 c-10 -16 -24 -38 -31 -50 -21 -41 -5 -24 27 27 33 54 36
68 4 23z"/>
<path d="M5973 5017 c4 -10 7 -23 7 -28 0 -5 7 -9 15 -9 21 0 19 14 -7 36 -20
18 -21 18 -15 1z"/>
<path d="M4976 4945 c-3 -9 0 -15 9 -15 16 0 20 16 6 24 -5 3 -11 -1 -15 -9z"/>
<path d="M5986 4922 c-3 -2 -3 -34 0 -71 5 -54 11 -71 34 -96 46 -50 55 -73
34 -96 -9 -10 -23 -19 -31 -19 -17 0 -17 -19 1 -26 8 -3 25 6 39 20 15 14 31
26 36 26 14 0 48 67 56 110 6 34 4 36 -42 60 -26 14 -64 41 -85 61 -21 20 -40
34 -42 31z"/>
<path d="M5880 4886 c0 -8 5 -18 10 -21 6 -3 10 3 10 14 0 12 -4 21 -10 21 -5
0 -10 -6 -10 -14z"/>
<path d="M5891 4750 c3 -91 0 -118 -18 -135 -14 -14 -14 -18 -2 -25 21 -14 30
12 36 99 4 51 2 85 -6 97 -10 16 -11 10 -10 -36z"/>
<path d="M5931 4503 c-1 -6 -4 -20 -7 -30 -5 -17 -5 -17 6 0 6 10 9 23 6 30
-3 9 -5 9 -5 0z"/>
<path d="M1681 4434 c0 -11 3 -14 6 -6 3 7 2 16 -1 19 -3 4 -6 -2 -5 -13z"/>
<path d="M1681 4374 c0 -11 3 -14 6 -6 3 7 2 16 -1 19 -3 4 -6 -2 -5 -13z"/>
<path d="M1695 4290 c-7 -23 2 -43 16 -35 12 8 12 42 0 50 -5 3 -12 -4 -16
-15z"/>
<path d="M5565 2535 c21 -374 17 -492 -22 -685 -26 -132 -123 -482 -155 -560
-17 -41 -45 -113 -63 -160 -18 -47 -88 -195 -156 -330 -69 -135 -140 -289
-158 -342 -18 -53 -70 -174 -116 -270 -46 -95 -81 -176 -79 -180 10 -17 61 -7
82 15 12 12 40 61 62 107 23 47 77 153 120 235 92 175 114 218 145 300 12 33
58 148 100 255 137 344 146 371 195 549 87 322 105 431 104 631 0 173 -18 339
-49 461 l-14 54 4 -80z"/>
</g>
</svg>
